<svg id="Layer_1" data-name="Layer 1" xmlns="http://www.w3.org/2000/svg" viewBox="0 0 20 20"><defs><style>.cls-1{fill:#fff;}</style></defs><title>insta-icon</title><circle class="cls-1" cx="15.29" cy="4.74" r="1.17"/><path class="cls-1" d="M10.08,5.07A4.93,4.93,0,1,0,15,10,4.93,4.93,0,0,0,10.08,5.07Zm0,8.09A3.16,3.16,0,1,1,13.24,10,3.16,3.16,0,0,1,10.08,13.16Z"/><path class="cls-1" d="M14,20H6a6,6,0,0,1-6-6V6A6,6,0,0,1,6,0h8a6,6,0,0,1,6,6v8A6,6,0,0,1,14,20ZM6,1.88A4.13,4.13,0,0,0,1.88,6v8A4.13,4.13,0,0,0,6,18.12h8A4.13,4.13,0,0,0,18.12,14V6A4.13,4.13,0,0,0,14,1.88Z"/></svg>