<?xml version="1.0" encoding="utf-8"?>
<!-- Generator: Adobe Illustrator 22.0.1, SVG Export Plug-In . SVG Version: 6.00 Build 0)  -->
<svg version="1.1" id="Layer_1" xmlns="http://www.w3.org/2000/svg" xmlns:xlink="http://www.w3.org/1999/xlink" x="0px" y="0px"
	 viewBox="0 0 340 215" style="enable-background:new 0 0 340 215;" xml:space="preserve">
<style type="text/css">
	.st0{fill:none;stroke:#000000;stroke-width:2;stroke-miterlimit:10;}
	.st1{fill:#FFFFFF;stroke:#000000;stroke-width:2;stroke-linecap:round;stroke-linejoin:round;stroke-miterlimit:10;}
	.st2{fill:#F1252D;}
</style>
<g>
	<line class="st0" x1="3.6" y1="142.3" x2="336.4" y2="142.7"/>
	<path class="st1" d="M69.6,212.8c0,0-103.8-209.5,2-210.5C179.3,2.3,69.6,212.8,69.6,212.8z"/>
	<path class="st2" d="M70.8,108c0,0-17.2-34.6,0.3-34.8C88.9,73.2,70.8,108,70.8,108z"/>
	<g>
		<path d="M150.4,109.6c0.3-0.4,0.8-0.8,1.3-0.8c0.8,0,1.6,0.4,1.6,1.4c0,0.2,0,0.4-0.1,0.6c-2.3,4.5-8.6,6.8-12.6,7.2
			c-0.6,6.1-3.3,22.6-12,22.6c-9.3,0-11.6-15.4-11.6-23c0-2,0.2-4.1,0.8-5.9c0.2-0.8,0.9-1.2,1.5-1.2c0.9,0,1.7,0.5,1.7,1.5
			c0,0.1-0.1,0.3-0.1,0.5c-0.4,1.7-0.6,3.4-0.6,5.3c0,4.8,1.4,19.6,8.5,19.6c5.9,0,8.2-15.5,8.6-19.3c-3.7-0.3-5.7-2.7-5.7-5.1
			c0-2.2,1.8-4.5,4.3-4.5c3.2,0,4.5,3.4,4.7,6.2C143.2,114.6,148.9,112.1,150.4,109.6z M137,112.9c-0.3-0.5-0.6-0.8-1.1-0.8
			c-0.4,0-0.9,0.3-0.9,1c0,1.6,1.6,1.8,2.5,1.9C137.4,114.4,137.2,113.4,137,112.9z"/>
		<path d="M180.8,113.7c0.3-0.5,0.9-0.9,1.4-0.9c0.2,0,0.5,0.1,0.8,0.2c0.5,0.3,0.8,0.9,0.8,1.4c0,0.3-0.1,0.6-0.2,0.9
			c-1.6,3.3-4.6,6.1-8,7.9c-1.3,0.6-2.7,1.2-4.2,1.4c-2.8,5.7-9.3,10.9-15.8,10.9c-6.5,0-12-5.3-12-12.3c0-7.6,5.9-15.8,15.9-15.8
			c1.3,0,2.6,0.1,4,0.4c0.8,0.1,1.2,0.9,1.2,1.6c0,0.8-0.5,1.5-1.6,1.5h-0.4c-1-0.1-1.9-0.2-2.9-0.2c-6.6,0-13,5.5-13,12.6
			c0,6.2,4.2,8.9,9,8.9s9.3-3.6,11.8-7.6c-0.9-0.2-1.7-0.4-2.5-0.9c-2.6-1.4-4.8-4.2-4.8-7.2c0-0.9,0.2-1.6,0.5-2.5
			c1.1-2.4,3.1-3.4,5.4-3.4c3.3,0,6.8,2.6,6.8,7.5c0,0.9-0.1,1.7-0.3,2.8C176.2,119.7,179,116.8,180.8,113.7z M169.7,118.2
			c0-3.1-1.7-4.4-3.3-4.4c-1.5,0-2.8,1-2.8,2.6c0,2.8,2.7,5,5.6,5.2C169.4,120.7,169.6,119.9,169.7,118.2z"/>
		<path d="M216.1,115.4c1.1,0,1.6,0.9,1.6,1.6c0,4.4-10.8,15.5-17.3,19.7c1,5,2.4,10.4,2.4,15.6c0,7.5-5.2,16.4-13,16.4
			c-5.3,0-10-4.2-10-10.6c0-6.7,5.8-15.4,17.1-22.9c-0.4-2.3-0.8-3.8-1.1-6.1c-2.9,1.6-5.6,2.3-8,2.3c-5.8,0-9.4-4.3-9.4-9.7
			c0-8.8,11.1-18.6,19.9-18.6c2.5,0,5.4,1.4,5.4,4.7c0,1-0.4,1.7-1.6,1.7c-2.8,0-0.2-3.1-3.8-3.1c-6.4,0-16.8,7.4-16.8,15.1
			c0,5.1,3.4,6.7,6.1,6.7s5.7-1.3,7.8-2.6c-0.1-0.8-0.1-1.4-0.1-2.2c0-8.2,3.8-12.6,6.9-12.6c1.6,0,2.9,1.3,2.9,3.9
			c0,4.4-2.7,9.6-6.4,12.5c0.2,2.3,0.5,3.8,0.9,6C214.9,122.3,213.3,115.4,216.1,115.4z M182.9,158.4c0,4.5,3.1,7.1,6.7,7.1
			c4.1,0,9.9-4.1,9.9-13.4c0-4-1.4-9.8-2-13.5C191.1,143.2,182.9,149.8,182.9,158.4z M198.6,123c1.8-1.4,3.3-5.1,3.3-8.7
			C199,115.8,198.6,120,198.6,123z"/>
		<path d="M226.5,128.5c2.3,0,5-0.9,7.4-2.6c3.7-2.5,6.2-7,7.4-7c0.9,0,1.6,0.6,1.6,1.5c0,0.4-0.2,0.9-0.4,1.2
			c-3.9,5.4-9.4,10-16.3,10c-6.9,0-11.5-6-11.5-13.9c0-7,4-13.7,11.6-13.7c3.1,0,5.9,1.8,5.9,6.2c0,5.5-4.8,10.7-10.9,10.7
			c-1.1,0-2.2-0.2-3.2-0.6C219,125.9,222.4,128.5,226.5,128.5z M221.5,117.8c4.3,0,7.5-4.2,7.5-7.6c0-1.7-0.6-2.9-2.5-2.9
			c-5.9,0-8.1,4.6-8.6,9.4C219.1,117.4,220.1,117.8,221.5,117.8z"/>
		<path d="M251.8,130.3c2.9,0,6-2.4,8.8-5.8c1-1.2,1.6-2.5,2.5-3.8c0.3-0.5,0.8-0.8,1.3-0.8c0.9,0,1.7,0.6,1.7,1.6
			c0,0.3-0.1,0.5-0.2,0.8c-2.4,4.8-8.3,11.2-14,11.2c-9.2,0-11.8-11.4-11.8-19.1c0-2.5,0.2-5,0.4-7.3c0.8-7,2.3-16.6,5.5-22.6
			c1.5-2.9,4.1-5.9,7.5-5.9c4.1,0.3,6.8,3.2,6.8,7.6c0,12.2-10.2,26.7-16.8,32.3C243.9,122.8,246.4,130.3,251.8,130.3z M257,86.3
			c0-2-1-4.4-3.4-4.4c-5.2,0-7.9,12.9-8.5,16.3c-1.1,5.5-1.8,11.1-1.8,16.6C248.7,109.2,257,94.8,257,86.3z"/>
	</g>
	<g>
		<path d="M221.9,177.5c-0.7,0.8-1.4,1.5-2.1,2c-0.7,0.5-1.3,0.9-2,1.1c-0.6,0.3-1.2,0.4-1.8,0.5c-0.6,0.1-1.2,0.1-1.7,0.1
			c-1.4,0-2.7-0.3-3.8-0.8c-1.1-0.6-2-1.4-2.7-2.4c-0.7-1-1.3-2.3-1.7-3.7c-0.4-1.4-0.6-3-0.6-4.8c0-1.9,0.2-3.5,0.7-5
			c0.5-1.5,1.1-2.8,1.9-3.8c0.8-1,1.8-1.8,2.9-2.4c1.1-0.6,2.3-0.8,3.5-0.8c0.5,0,1.1,0,1.7,0.1s1.1,0.2,1.7,0.4
			c0.6,0.2,1.2,0.5,1.9,0.8c0.7,0.4,1.3,0.9,2,1.5v-11.5h2.3v31.9h-2.3V177.5z M221.9,163c-1-1.1-2.1-1.9-3.3-2.4
			c-1.1-0.5-2.4-0.8-3.8-0.8c-1,0-2,0.2-2.8,0.6c-0.8,0.4-1.6,1-2.2,1.8c-0.6,0.8-1.1,1.8-1.4,3c-0.3,1.2-0.5,2.6-0.5,4.3
			c0,3.1,0.6,5.4,1.8,7c1.2,1.6,2.8,2.4,5,2.4c1.4,0,2.7-0.4,3.8-1.2c1.2-0.8,2.3-1.9,3.4-3.4V163z"/>
		<path d="M240.9,181.2c-1.6,0-3-0.3-4.3-0.8c-1.3-0.5-2.4-1.3-3.3-2.3c-0.9-1-1.6-2.3-2.1-3.7c-0.5-1.5-0.8-3.2-0.8-5
			c0-1.8,0.2-3.5,0.7-4.9c0.5-1.5,1.2-2.7,2.1-3.7c0.9-1,2-1.8,3.2-2.3c1.2-0.5,2.6-0.8,4.1-0.8c1.5,0,2.9,0.3,4.2,0.8
			c1.2,0.5,2.3,1.3,3.2,2.3c0.9,1,1.5,2.3,2,3.7c0.5,1.5,0.7,3.1,0.7,5v0.5h-17.8c0.1,1.5,0.4,2.9,0.8,4c0.4,1.1,1,2.1,1.7,2.8
			c0.7,0.7,1.5,1.3,2.5,1.7c0.9,0.4,2,0.6,3.1,0.6c0.8,0,1.6-0.1,2.3-0.3c0.8-0.2,1.5-0.5,2.1-0.8c0.6-0.4,1.2-0.8,1.6-1.4
			c0.4-0.5,0.7-1.2,0.8-1.9h2.3c-0.2,1.1-0.6,2-1.1,2.8c-0.5,0.8-1.2,1.5-2,2.1c-0.8,0.6-1.7,1-2.7,1.3
			C243.1,181,242.1,181.2,240.9,181.2z M248.2,167.4c-0.4-2.6-1.3-4.5-2.6-5.8c-1.4-1.3-3.1-1.9-5.1-1.9c-1,0-1.9,0.2-2.8,0.5
			c-0.9,0.3-1.6,0.8-2.3,1.4c-0.7,0.6-1.2,1.4-1.7,2.4c-0.5,1-0.8,2.1-1,3.4H248.2z"/>
		<path d="M264.1,181.2c-5.5,0-8.6-2.2-9.1-6.7h2.4c0.2,1.4,0.8,2.4,1.9,3.2c1.1,0.8,2.7,1.2,4.8,1.2c1,0,1.9-0.1,2.7-0.3
			c0.8-0.2,1.4-0.5,1.9-0.9c0.5-0.4,0.9-0.8,1.2-1.4c0.3-0.5,0.4-1.1,0.4-1.7c0-0.6-0.1-1.1-0.3-1.5c-0.2-0.4-0.6-0.8-1.1-1.2
			c-0.5-0.3-1.3-0.7-2.2-1c-0.9-0.3-2.1-0.7-3.5-1c-1.2-0.3-2.3-0.6-3.3-1c-1-0.3-1.8-0.7-2.4-1.2c-0.7-0.5-1.1-1.1-1.5-1.8
			c-0.3-0.7-0.5-1.5-0.5-2.6c0-0.9,0.2-1.7,0.6-2.4c0.4-0.7,0.9-1.3,1.6-1.9c0.7-0.5,1.5-0.9,2.5-1.2c1-0.3,2.1-0.4,3.2-0.4
			c2.7,0,4.7,0.5,6.1,1.4c1.4,0.9,2.2,2.3,2.3,4.3h-2.4c-0.2-1.1-0.7-2-1.6-2.5c-0.9-0.5-2.3-0.8-4.1-0.8c-0.9,0-1.6,0.1-2.4,0.2
			c-0.7,0.2-1.3,0.4-1.9,0.7c-0.5,0.3-0.9,0.7-1.2,1.1c-0.3,0.5-0.4,1-0.4,1.6c0,0.3,0.1,0.7,0.2,1c0.1,0.3,0.4,0.7,0.9,1.1
			c0.5,0.4,1.2,0.7,2.1,1.1c1,0.4,2.3,0.8,3.9,1.2c1.3,0.3,2.4,0.7,3.4,1c1,0.4,1.8,0.8,2.4,1.3c0.6,0.5,1.1,1.1,1.4,1.7
			c0.3,0.7,0.5,1.4,0.5,2.3c0,1-0.2,1.9-0.6,2.8c-0.4,0.9-1,1.6-1.7,2.2c-0.7,0.6-1.6,1.1-2.7,1.5
			C266.6,181,265.4,181.2,264.1,181.2z"/>
		<path d="M281.5,180.6h-2.3V158h2.3V180.6z M281.5,152.3h-2.3v-3.6h2.3V152.3z"/>
		<path d="M306.3,179.2c0,1.8-0.2,3.3-0.6,4.6c-0.4,1.3-1,2.3-1.7,3.1c-0.8,0.8-1.7,1.4-2.9,1.7c-1.2,0.4-2.5,0.6-4.1,0.6
			c-1.3,0-2.4-0.1-3.5-0.4c-1-0.3-1.9-0.7-2.7-1.2c-0.7-0.5-1.3-1.2-1.7-2c-0.4-0.8-0.7-1.7-0.7-2.7h2.3c0.1,1.3,0.7,2.3,1.7,3
			c1,0.6,2.5,0.9,4.5,0.9c1.2,0,2.2-0.1,3.1-0.4c0.9-0.3,1.6-0.7,2.2-1.4c0.6-0.6,1-1.5,1.3-2.5c0.3-1,0.5-2.3,0.5-3.9v-1.4
			c-0.8,0.9-1.5,1.6-2.1,2.1c-0.7,0.5-1.3,0.9-1.9,1.2c-0.6,0.3-1.2,0.4-1.8,0.5c-0.6,0.1-1.1,0.1-1.7,0.1c-1.4,0-2.7-0.3-3.8-0.8
			c-1.1-0.6-2-1.4-2.7-2.4c-0.7-1-1.3-2.3-1.7-3.7c-0.4-1.4-0.6-3-0.6-4.8c0-1.9,0.2-3.5,0.7-5c0.5-1.5,1.1-2.8,1.9-3.8
			c0.8-1,1.8-1.8,2.9-2.4c1.1-0.6,2.3-0.8,3.5-0.8c0.5,0,1.1,0,1.7,0.1c0.6,0.1,1.2,0.2,1.8,0.4c0.6,0.2,1.3,0.5,1.9,0.8
			c0.6,0.3,1.3,0.8,1.9,1.3V158h2.3V179.2z M303.9,163c-1-1.1-2.1-1.9-3.3-2.4c-1.1-0.5-2.4-0.8-3.8-0.8c-1,0-2,0.2-2.8,0.6
			c-0.8,0.4-1.6,1-2.2,1.8c-0.6,0.8-1.1,1.8-1.4,3c-0.3,1.2-0.5,2.6-0.5,4.3c0,3.1,0.6,5.4,1.8,7c1.2,1.6,2.8,2.4,5,2.4
			c1.4,0,2.7-0.4,3.8-1.2c1.2-0.8,2.3-1.9,3.4-3.4V163z"/>
		<path d="M316.1,161.3c0.8-0.9,1.5-1.6,2.2-2.1c0.7-0.5,1.4-0.9,2.1-1.2c0.7-0.3,1.3-0.4,2-0.5c0.6-0.1,1.2-0.1,1.7-0.1
			c4.6,0,7,2.7,7,8.2v15h-2.3v-14.8c0-1-0.1-2-0.3-2.7c-0.2-0.8-0.5-1.4-0.9-1.9c-0.4-0.5-1-0.9-1.6-1.1c-0.7-0.2-1.5-0.4-2.5-0.4
			c-1.3,0-2.5,0.4-3.8,1.1s-2.5,1.8-3.7,3.2v16.5h-2.3V158h2.3V161.3z"/>
	</g>
</g>
</svg>
